<svg id="Capa_1" enable-background="new 0 0 511.873 511.873" height="512" viewBox="0 0 511.873 511.873" width="512" xmlns="http://www.w3.org/2000/svg"><g><g><g><path d="m23.928 308.556c-1.817 0-3.641-.644-5.102-1.953-3.144-2.819-3.408-7.653-.588-10.798l11.394-12.71c2.818-3.141 7.652-3.409 10.798-.588 3.144 2.819 3.408 7.653.588 10.798l-11.394 12.71c-1.509 1.683-3.598 2.541-5.696 2.541z" fill="#a7e7d0"/></g><g><path d="m55.875 335.146c-.17 0-.341-.005-.513-.017-4.214-.278-7.404-3.92-7.125-8.135l1.353-20.471c.278-4.214 3.925-7.409 8.135-7.125 4.214.278 7.404 3.92 7.125 8.135l-1.353 20.471c-.267 4.042-3.629 7.142-7.622 7.142z" fill="#a7e7d0"/></g><g><path d="m41.074 284.059c-.391 0-.788-.03-1.187-.093-4.173-.65-7.028-4.56-6.377-8.733l2.823-18.112c.65-4.173 4.569-7.028 8.733-6.377 4.173.65 7.028 4.56 6.377 8.733l-2.823 18.112c-.588 3.773-3.843 6.47-7.546 6.47z" fill="#a7e7d0"/></g><g><path d="m94.864 361.38c-.302 0-.605-.018-.911-.055-4.194-.498-7.19-4.3-6.692-8.494l2.156-18.158c.498-4.196 4.311-7.192 8.494-6.692 4.194.498 7.19 4.3 6.692 8.494l-2.156 18.158c-.461 3.888-3.762 6.747-7.583 6.747z" fill="#a7e7d0"/></g><g><path d="m139.104 383.698c-.679 0-1.369-.092-2.055-.282-4.068-1.133-6.448-5.35-5.316-9.418l6.214-22.317c1.133-4.068 5.352-6.445 9.418-5.316 4.068 1.133 6.448 5.35 5.316 9.418l-6.214 22.317c-.942 3.382-4.016 5.598-7.363 5.598z" fill="#a7e7d0"/></g></g><path d="m.335 265.424c19.716 21.517 149.349 155.16 267.05 84.98 8.31-4.955 14.583-12.716 17.851-21.822 10.857-30.251-14.784-60.934-46.51-55.789-52.384 8.495-132.094 12.126-237.194-9.449-1.2-.247-2.025 1.177-1.197 2.08z" fill="#78d0b1"/><path d="m217.817 275.707c-35.384 4.163-80.456 5.673-134.79.194 41.979 34.193 72.069 66.613 93.215 93.571 26.41 3.145 53.83-.091 80.815-13.449.645-5.316.273-10.742-1.174-15.973-7.402-26.755-20.941-47.801-38.066-64.343z" fill="#61aab7"/><path d="m452.872 380.876h-211.016c-23.982 0-43.423-19.441-43.423-43.423v-125.501h297.863v125.501c-.001 23.982-19.442 43.423-43.424 43.423z" fill="#5493a2"/><path d="m473.276 211.951v125.501c0 23.982-19.441 43.423-43.423 43.423h23.019c23.982 0 43.423-19.441 43.423-43.423v-125.501z" fill="#478089"/><path d="m486.953 158.433c-93.059-46.779-186.119-46.779-279.178 0-5.717 2.874-9.342 8.711-9.342 15.11v38.409h297.863v-38.409c-.001-6.399-3.627-12.236-9.343-15.11z" fill="#5493a2"/><path d="m486.953 158.433c-87.286-43.877-174.573-46.598-261.859-8.164 79.613-28.455 159.227-22.679 238.84 17.34 5.717 2.874 9.343 8.712 9.343 15.11v29.233h23.019v-38.409c-.001-6.398-3.626-12.236-9.343-15.11z" fill="#478089"/><g><path d="m504.226 219.598h-313.724c-4.224 0-7.647-3.423-7.647-7.647s3.423-7.647 7.647-7.647h313.724c4.224 0 7.647 3.423 7.647 7.647s-3.423 7.647-7.647 7.647z" fill="#dfeaef"/></g><path d="m436.022 341.022h-177.316c-9.653 0-17.478-7.825-17.478-17.478v-54.259c0-9.653 7.825-17.478 17.478-17.478h177.316c9.653 0 17.478 7.825 17.478 17.478v54.259c0 9.652-7.825 17.478-17.478 17.478z" fill="#f1f1f4"/><path d="m436.022 251.806h-19.128c9.653 0 17.478 7.825 17.478 17.478v54.259c0 9.653-7.825 17.479-17.478 17.479h19.128c9.653 0 17.479-7.825 17.479-17.479v-54.259c0-9.653-7.826-17.478-17.479-17.478z" fill="#dfeaef"/><g><path d="m406.702 304.061h-118.676c-4.224 0-7.647-3.423-7.647-7.647s3.423-7.647 7.647-7.647h118.675c4.224 0 7.647 3.423 7.647 7.647s-3.423 7.647-7.646 7.647z" fill="#2b4d66"/></g><g><g><path d="m194.459 388.524c-1.362 0-2.74-.363-3.986-1.126-3.602-2.205-4.734-6.913-2.529-10.514l10.982-17.938c2.206-3.602 6.916-4.732 10.514-2.529 3.602 2.205 4.734 6.913 2.529 10.514l-10.982 17.938c-1.442 2.355-3.954 3.655-6.528 3.655z" fill="#a7e7d0"/></g><g><path d="m61.695 219.598c-.084 0-.168-.001-.252-.004-4.222-.136-7.532-3.669-7.396-7.89l.526-16.258c.133-4.137 3.53-7.4 7.638-7.4.084 0 .168.001.252.004 4.222.136 7.532 3.669 7.396 7.89l-.526 16.258c-.134 4.137-3.53 7.4-7.638 7.4z" fill="#a7e7d0"/></g><g><path d="m94.847 221.426c-1.301 0-2.62-.332-3.826-1.032-3.654-2.117-4.901-6.795-2.783-10.45l8.819-15.223c2.117-3.654 6.796-4.902 10.45-2.783 3.654 2.117 4.901 6.795 2.783 10.45l-8.819 15.223c-1.418 2.448-3.985 3.815-6.624 3.815z" fill="#a7e7d0"/></g><g><path d="m47.173 247.927c-1.509 0-3.033-.446-4.365-1.374-3.465-2.414-4.316-7.181-1.902-10.646l11.317-16.238c2.414-3.466 7.181-4.315 10.646-1.902 3.465 2.414 4.316 7.181 1.902 10.646l-11.317 16.238c-1.487 2.133-3.864 3.276-6.281 3.276z" fill="#a7e7d0"/></g><g><path d="m115.73 305.22c-3.166 0-6.126-1.98-7.224-5.14-1.385-3.99.726-8.347 4.714-9.733l23.37-8.117c3.992-1.392 8.347.726 9.733 4.714 1.385 3.99-.726 8.347-4.714 9.733l-23.37 8.117c-.831.29-1.678.426-2.509.426z" fill="#a7e7d0"/></g><g><path d="m139.094 228.654c-1.6 0-3.214-.5-4.592-1.536-3.374-2.54-4.051-7.334-1.512-10.708l10.88-14.458c2.54-3.374 7.33-4.052 10.708-1.512 3.374 2.54 4.051 7.334 1.512 10.708l-10.88 14.458c-1.503 1.995-3.795 3.048-6.116 3.048z" fill="#a7e7d0"/></g><g><path d="m149.722 331.009c-.713 0-1.437-.101-2.156-.312-4.052-1.189-6.374-5.437-5.184-9.49l4.792-16.332c1.189-4.051 5.438-6.374 9.49-5.184 4.052 1.189 6.374 5.437 5.184 9.49l-4.792 16.332c-.978 3.334-4.028 5.496-7.334 5.496z" fill="#a7e7d0"/></g><g><path d="m168.275 355.425c-3.45 0-6.58-2.351-7.427-5.853-.992-4.105 1.531-8.237 5.636-9.229l20.732-5.009c4.108-.999 8.236 1.531 9.229 5.636.992 4.105-1.531 8.237-5.636 9.229l-20.732 5.009c-.603.147-1.208.217-1.802.217z" fill="#a7e7d0"/></g><g><path d="m209.401 259.976c-2.546 0-5.034-1.27-6.486-3.586-2.243-3.578-1.161-8.298 2.417-10.54l19.224-12.05c3.578-2.243 8.297-1.162 10.54 2.417 2.243 3.578 1.161 8.298-2.417 10.54l-19.224 12.05c-1.262.792-2.666 1.169-4.054 1.169z" fill="#a7e7d0"/></g><g><path d="m247.271 301.881c-2.179 0-4.341-.925-5.854-2.722-2.72-3.23-2.306-8.054.925-10.774l17.672-14.878c3.231-2.72 8.055-2.306 10.774.925 2.72 3.23 2.306 8.054-.925 10.774l-17.672 14.878c-1.433 1.208-3.182 1.797-4.92 1.797z" fill="#a7e7d0"/></g></g><path d="m20.635 205.023c29.121-1.919 215.177-8.879 251.714 123.196 2.58 9.325 1.747 19.269-2.186 28.109-13.066 29.365-52.804 33.811-72.174 8.163-31.981-42.35-87.069-100.074-177.928-157.136-1.037-.652-.649-2.251.574-2.332z" fill="#78d0b1"/><path d="m20.061 207.354c8.507 5.345 16.686 10.696 24.58 16.039 64.668 1.992 185.683 19.929 214.392 123.706 2.281 8.246 1.889 16.975-.95 24.997 4.992-4.001 9.191-9.272 12.081-15.768 3.933-8.84 4.766-18.784 2.186-28.108-36.537-132.069-222.574-125.117-251.71-123.197-1.224.08-1.618 1.679-.579 2.331z" fill="#61aab7"/></g></svg>