<svg height="512pt" viewBox="-60 0 512 512.00124" width="512pt" xmlns="http://www.w3.org/2000/svg"><path d="m99.707031 202.039062h-48.421875v-37.230468c0-7.648438 6.199219-13.851563 13.851563-13.851563h20.71875c7.652343 0 13.855469 6.203125 13.855469 13.851563v37.230468zm0 0" fill="#badb47"/><path d="m121.5625 235.332031h-92.132812v-32.574219c0-2.765624 2.242187-5.003906 5.007812-5.003906h82.117188c2.765624 0 5.003906 2.238282 5.003906 5.003906v32.574219zm0 0" fill="#18aa60"/><path d="m117.179688 180.210938h-17.472657c-4.34375 0-7.863281-3.519532-7.863281-7.859376 0-4.34375 3.519531-7.859374 7.863281-7.859374h17.472657c4.34375 0 7.867187 3.515624 7.867187 7.859374 0 4.339844-3.523437 7.859376-7.867187 7.859376zm0 0" fill="#18aa60"/><path d="m132.640625 512h-114.289063c-10.136718 0-18.351562-8.210938-18.351562-18.339844v-243.402344c0-10.128906 8.214844-18.339843 18.351562-18.339843h114.289063c10.136719 0 18.351563 8.210937 18.351563 18.339843v243.402344c0 10.128906-8.214844 18.339844-18.351563 18.339844zm0 0" fill="#badb47"/><path d="m132.640625 231.917969h-37.914063c10.132813 0 18.347657 8.210937 18.347657 18.339843v243.402344c0 10.128906-8.214844 18.339844-18.347657 18.339844h37.914063c10.136719 0 18.351563-8.210938 18.351563-18.339844v-243.402344c0-10.128906-8.214844-18.339843-18.351563-18.339843zm0 0" fill="#82c11f"/><path d="m116.554688 197.753906h-24.214844c2.765625 0 5.007812 2.238282 5.007812 5.003906v29.160157h24.210938v-29.160157c0-2.765624-2.238282-5.003906-5.003906-5.003906zm0 0" fill="#16934e"/><path d="m85.851562 150.957031h-18.292968c7.652344 0 13.855468 6.199219 13.855468 13.847657v32.949218h18.296876v-32.949218c-.003907-7.648438-6.207032-13.847657-13.859376-13.847657zm0 0" fill="#82c11f"/><path d="m245.679688 187.898438s-34.660157-23.28125-36.160157-24.761719c-6.761719-6.660157-6.761719-17.449219 0-24.109375 6.757813-6.65625 17.71875-6.65625 24.476563 0 1.644531 1.621094 24.625 36.125 24.625 36.125zm0 0" fill="#7f7ce8"/><path d="m252.414062 191.050781s-41.226562 7.667969-43.351562 7.667969c-9.5625 0-17.3125-7.628906-17.3125-17.042969 0-9.414062 7.75-17.046875 17.3125-17.046875 2.320312 0 43.351562 8.398438 43.351562 8.398438zm0 0" fill="#fd82ac"/><path d="m259.144531 187.339844s-23.644531 34.128906-25.148437 35.609375c-6.757813 6.65625-17.71875 6.65625-24.476563 0-6.761719-6.65625-6.761719-17.449219 0-24.105469 1.640625-1.617188 36.683594-24.246094 36.683594-24.246094zm0 0" fill="#7f7ce8"/><path d="m261.929688 181.675781s7.792968 40.597657 7.792968 42.691407c0 9.410156-7.75 17.042968-17.3125 17.042968-9.558594 0-17.308594-7.632812-17.308594-17.042968 0-2.289063 8.527344-42.691407 8.527344-42.691407zm0 0" fill="#fd82ac"/><path d="m259.144531 175.046875s34.660157 23.28125 36.160157 24.761719c6.761718 6.65625 6.761718 17.449218 0 24.105468-6.757813 6.65625-17.71875 6.65625-24.476563 0-1.644531-1.617187-24.625-36.125-24.625-36.125zm0 0" fill="#7f7ce8"/><path d="m252.414062 191.050781s41.226563 7.667969 43.351563 7.667969c9.558594 0 17.308594-7.628906 17.308594-17.042969 0-9.414062-7.75-17.046875-17.308594-17.046875-2.324219 0-43.351563 8.398438-43.351563 8.398438zm0 0" fill="#fd82ac"/><path d="m245.679688 175.605469s23.644531-34.132813 25.148437-35.613281c6.757813-6.65625 17.71875-6.65625 24.476563 0 6.761718 6.65625 6.761718 17.449218 0 24.105468-1.640626 1.621094-36.683594 24.25-36.683594 24.25zm0 0" fill="#7f7ce8"/><path d="m242.894531 181.269531s-7.792969-40.597656-7.792969-42.691406c0-9.414063 7.75-17.042969 17.3125-17.042969 9.558594 0 17.308594 7.628906 17.308594 17.042969 0 2.289063-8.527344 42.691406-8.527344 42.691406zm0 0" fill="#fd82ac"/><path d="m269.722656 181.675781c0-9.414062-7.75-17.046875-17.308594-17.046875-9.5625 0-17.3125 7.632813-17.3125 17.046875 0 9.414063 7.75 17.042969 17.3125 17.042969 9.558594 0 17.308594-7.628906 17.308594-17.042969zm0 0" fill="#fede94"/><path d="m324.8125 341.921875c16.074219 16.066406 37.875 22.921875 58.835938 20.570313 2.519531-.28125 4.511718-2.273438 4.796874-4.792969 2.351563-20.949219-4.507812-42.738281-20.585937-58.804688-15.402344-15.394531-36.0625-22.335937-56.207031-20.816406-4.117188.308594-7.359375 3.550781-7.671875 7.667969-1.515625 20.128906 5.425781 40.777344 20.832031 56.175781zm0 0" fill="#5be167"/><path d="m354.421875 336.351562c-2.011719 0-4.023437-.769531-5.558594-2.304687l-66.070312-66.03125c-3.070313-3.070313-3.070313-8.046875 0-11.117187 3.070312-3.070313 8.050781-3.070313 11.121093 0l66.070313 66.03125c3.070313 3.070312 3.070313 8.046874 0 11.117187-1.535156 1.535156-3.546875 2.304687-5.5625 2.304687zm0 0" fill="#18aa60"/><path d="m324.8125 21.023438c16.074219-16.066407 37.875-22.925782 58.835938-20.574219 2.519531.285156 4.511718 2.277343 4.796874 4.792969 2.351563 20.953124-4.507812 42.738281-20.582031 58.808593-15.40625 15.394531-36.066406 22.332031-56.207031 20.816407-4.117188-.308594-7.363281-3.554688-7.671875-7.667969-1.519531-20.132813 5.421875-40.78125 20.828125-56.175781zm0 0" fill="#5be167"/><path d="m288.355469 108.347656c-2.015625 0-4.027344-.765625-5.5625-2.300781-3.070313-3.070313-3.070313-8.046875 0-11.117187l66.070312-66.035157c3.070313-3.066406 8.050781-3.070312 11.121094 0 3.070313 3.070313 3.070313 8.046875 0 11.117188l-66.070313 66.035156c-1.535156 1.535156-3.546874 2.300781-5.558593 2.300781zm0 0" fill="#18aa60"/><g fill="#bddff4"><path d="m212.367188 103.289062c-.496094 0-.996094-.046874-1.5-.144531-4.265626-.824219-7.054688-4.949219-6.230469-9.210937 2.050781-10.601563 6.507812-18.300782 13.246093-22.886719 4.074219-2.773437 7.71875-3.589844 10.9375-4.3125 2.316407-.515625 4.320313-.964844 6.707032-2.210937 3.964844-2.066407 7.347656-5.496094 10.058594-10.183594 2.171874-3.761719 6.984374-5.046875 10.742187-2.875 3.761719 2.171875 5.050781 6.976562 2.875 10.738281-4.226563 7.316406-9.746094 12.785156-16.394531 16.253906-4.214844 2.199219-7.722656 2.988281-10.542969 3.621094-2.660156.59375-4.007813.925781-5.53125 1.964844-3.179687 2.164062-5.417969 6.496093-6.652344 12.875-.726562 3.757812-4.023437 6.371093-7.714843 6.371093zm0 0"/><path d="m230.46875 285.734375c-2.714844 0-5.359375-1.410156-6.816406-3.929687-2.710938-4.691407-6.097656-8.117188-10.054688-10.183594-2.390625-1.246094-4.390625-1.695313-6.707031-2.214844-3.21875-.722656-6.867187-1.539062-10.941406-4.3125-6.738281-4.582031-11.195313-12.28125-13.246094-22.886719-.824219-4.261719 1.964844-8.386719 6.230469-9.207031 4.257812-.824219 8.390625 1.960938 9.214844 6.222656 1.234374 6.382813 3.472656 10.714844 6.652343 12.878906 1.527344 1.035157 2.871094 1.367188 5.53125 1.964844 2.820313.632813 6.328125 1.421875 10.542969 3.617188 6.652344 3.472656 12.167969 8.941406 16.398438 16.253906 2.171874 3.761719.882812 8.570312-2.875 10.742188-1.238282.714843-2.59375 1.054687-3.929688 1.054687zm0 0"/><path d="m384.613281 250.820312c-1.652343 0-3.320312-.519531-4.738281-1.59375-2.914062-2.203124-5.882812-3.441406-8.820312-3.683593-1.738282-.140625-3.058594.097656-4.730469.398437-2.46875.445313-5.542969.996094-9.515625.199219-6.492188-1.300781-12.214844-5.585937-17.007813-12.730469-2.417969-3.605468-1.449219-8.488281 2.15625-10.90625 3.609375-2.414062 8.496094-1.453125 10.914063 2.15625 1.644531 2.453125 4.203125 5.5 7.035156 6.070313.996094.199219 1.785156.070312 3.625-.257813 2.117188-.382812 5.015625-.90625 8.808594-.597656 5.960937.492188 11.691406 2.78125 17.023437 6.816406 3.464844 2.617188 4.148438 7.550782 1.527344 11.011719-1.546875 2.042969-3.898437 3.117187-6.277344 3.117187zm0 0"/><path d="m324.445312 159.121094c-1.503906 0-3.027343-.429688-4.371093-1.332032-3.609375-2.417968-4.574219-7.300781-2.15625-10.90625 4.789062-7.144531 10.511719-11.425781 17.007812-12.734374 3.976563-.796876 7.046875-.242188 9.515625.203124 1.671875.300782 2.988282.542969 4.730469.398438 2.9375-.242188 5.90625-1.480469 8.820313-3.683594 3.464843-2.621094 8.394531-1.9375 11.015624 1.527344 2.621094 3.460938 1.9375 8.390625-1.527343 11.011719-5.332031 4.03125-11.0625 6.324219-17.023438 6.8125-3.792969.308593-6.695312-.210938-8.8125-.59375-1.839843-.332031-2.625-.457031-3.621093-.261719-2.832032.570312-5.390626 3.617188-7.035157 6.074219-1.519531 2.261719-4.007812 3.484375-6.542969 3.484375zm0 0"/><path d="m386.535156 188.175781c0 4.152344-3.363281 7.519531-7.515625 7.519531-4.152343 0-7.519531-3.367187-7.519531-7.519531 0-4.152343 3.367188-7.515625 7.519531-7.515625 4.152344 0 7.515625 3.363282 7.515625 7.515625zm0 0"/><path d="m158.507812 168.917969c0 4.152343-3.363281 7.519531-7.515624 7.519531-4.152344 0-7.519532-3.367188-7.519532-7.519531 0-4.152344 3.367188-7.519531 7.519532-7.519531 4.152343 0 7.515624 3.367187 7.515624 7.519531zm0 0"/><path d="m185.617188 121.046875c0 4.152344-3.367188 7.519531-7.515626 7.519531-4.152343 0-7.519531-3.367187-7.519531-7.519531s3.367188-7.519531 7.519531-7.519531c4.148438 0 7.515626 3.367187 7.515626 7.519531zm0 0"/><path d="m280.683594 302.992188c0 4.152343-3.367188 7.515624-7.519532 7.515624-4.152343 0-7.515624-3.363281-7.515624-7.515624 0-4.152344 3.363281-7.519532 7.515624-7.519532 4.152344 0 7.519532 3.367188 7.519532 7.519532zm0 0"/></g><path d="m75.496094 433.054688c-4.34375 0-7.867188-3.515626-7.867188-7.859376v-53.949218c0-4.339844 3.523438-7.859375 7.867188-7.859375s7.863281 3.519531 7.863281 7.859375v53.949218c0 4.34375-3.519531 7.859376-7.863281 7.859376zm0 0" fill="#e2ed9d"/><path d="m101.773438 344.984375c0-14.503906-11.765626-26.261719-26.277344-26.261719-14.511719 0-26.277344 11.757813-26.277344 26.261719s11.765625 26.261719 26.277344 26.261719c14.511718 0 26.277344-11.757813 26.277344-26.261719zm0 0" fill="#f7ffd4"/></svg>