<svg id="Capa_1" enable-background="new 0 0 512 512" height="512" viewBox="0 0 512 512" width="512" xmlns="http://www.w3.org/2000/svg"><g><path d="m165.08 366.161-22.599-5.541c-52.512-12.874-93.521-53.859-106.427-106.363l-6.383-25.969c-1.66-6.753 4.441-12.858 11.195-11.202l7.756 1.902c52.512 12.874 93.521 53.859 106.427 106.363z" fill="#78d0b1"/><path d="m48.622 218.988-7.756-1.901c-6.754-1.656-12.855 4.448-11.195 11.202l3.037 12.354 2.443.599c52.512 12.874 93.521 53.859 106.427 106.363l3.347 13.615 20.156 4.942-10.031-40.81c-12.907-52.505-53.916-93.49-106.428-106.364z" fill="#61aab7"/><path d="m284.394 114.288 16.613 20.602h92.453l20.75-20.602v-83.887c-.001-16.79-13.612-30.401-30.402-30.401h-69.014c-16.79 0-30.401 13.611-30.401 30.401v83.887z" fill="#365e7d"/><path d="m383.808 0h-21.82c16.79 0 30.401 13.611 30.401 30.401v104.49l21.82-20.602v-83.888c0-16.79-13.611-30.401-30.401-30.401z" fill="#2b4d66"/><g><g><path d="m316.906 89.582c-4.267 0-7.726-3.459-7.726-7.726v-41.988c0-4.267 3.459-7.726 7.726-7.726s7.726 3.459 7.726 7.726v41.989c0 4.266-3.459 7.725-7.726 7.725z" fill="#2b4d66"/></g><g><path d="m349.301 89.582c-4.267 0-7.726-3.459-7.726-7.726v-41.988c0-4.267 3.459-7.726 7.726-7.726s7.726 3.459 7.726 7.726v41.989c0 4.266-3.458 7.725-7.726 7.725z" fill="#2b4d66"/></g><g><path d="m381.697 89.582c-4.267 0-7.726-3.459-7.726-7.726v-41.988c0-4.267 3.459-7.726 7.726-7.726s7.726 3.459 7.726 7.726v41.989c0 4.266-3.459 7.725-7.726 7.725z" fill="#2b4d66"/></g></g><path d="m414.209 140.794v-26.506h-129.816v26.506c0 10.399-6.815 19.569-16.772 22.569-30.647 9.232-51.624 37.457-51.624 69.465v212.324c0 36.903 29.916 66.819 66.819 66.819h132.968c36.903 0 66.819-29.916 66.819-66.819v-212.324c0-32.008-20.976-60.233-51.624-69.465-9.955-3-16.77-12.17-16.77-22.569z" fill="#e4f6ff"/><g><path d="m430.981 163.363-4.087-2.043c-7.774-3.887-12.685-11.833-12.685-20.525v-26.506h-129.815v14.987h77.615c17.84 0 32.302 14.462 32.302 32.302 0 9.263 7.509 16.772 16.772 16.772 30.648 9.232 51.624 37.457 51.624 69.465v212.324c0 17.31-6.582 33.081-17.38 44.95 22.083-10.905 37.278-33.642 37.278-59.937v-212.324c0-32.008-20.976-60.234-51.624-69.465z" fill="#bed8fb"/></g><g><path d="m427.036 122.014h-155.469c-4.267 0-7.726-3.459-7.726-7.726s3.459-7.726 7.726-7.726h155.469c4.267 0 7.726 3.459 7.726 7.726s-3.458 7.726-7.726 7.726z" fill="#f6e781"/></g><path d="m282.817 481.067h132.968c19.836 0 35.915-16.08 35.915-35.915v-156.947c0-6.027-6.197-10.054-11.715-7.632-6.903 3.031-10.497 8.058-22.421 8.058-17.068 0-17.068-10.301-34.136-10.301-17.066 0-17.066 10.301-34.132 10.301s-17.066-10.301-34.133-10.301c-17.066 0-17.066 10.301-34.131 10.301-11.921 0-15.514-5.027-22.415-8.057-5.518-2.423-11.716 1.605-11.716 7.632v156.946c0 19.835 16.08 35.915 35.916 35.915z" fill="#f4d8a5"/><g><path d="m439.985 280.573c-4.649 2.041-7.806 4.983-13.01 6.69.034.309.06.621.06.942v156.947c0 19.836-16.08 35.915-35.915 35.915h24.665c19.836 0 35.915-16.08 35.915-35.915v-156.947c.001-6.026-6.196-10.054-11.715-7.632z" fill="#ffd064"/></g><g><path d="m366.544 206.013c-14.869 0-26.967-12.098-26.967-26.967v-64.758c0-4.267 3.459-7.726 7.726-7.726h19.241c14.869 0 26.967 12.098 26.967 26.967v45.517c0 14.869-12.098 26.967-26.967 26.967zm-11.516-83.999v57.032c0 6.35 5.166 11.515 11.515 11.515 6.35 0 11.515-5.166 11.515-11.515v-45.517c0-6.35-5.166-11.515-11.515-11.515z" fill="#f6e781"/></g><g><path d="m329.401 166.496c-.961 0-1.936-.18-2.882-.56-3.959-1.593-5.876-6.093-4.283-10.052l10.128-25.169-17.309 8.955c-3.789 1.96-8.451.479-10.412-3.312-1.961-3.79-.478-8.451 3.312-10.412l35.798-18.521c2.867-1.485 6.359-1.027 8.748 1.146 2.39 2.173 3.175 5.603 1.97 8.6l-17.899 44.48c-1.214 3.014-4.111 4.845-7.171 4.845z" fill="#f6e781"/></g><path d="m174.701 392.835 22.351-32.829c18.723-27.5 54.36-37.793 84.862-24.509l14.554 6.338c7.325 3.19 12.232 10.231 12.689 18.207.267 4.658-1.012 9.274-3.638 13.131l-11.621 17.068c-21.516 31.603-64.578 39.78-96.181 18.263z" fill="#f1f1f4"/><path d="m293.897 390.241 11.621-17.068c2.626-3.857 3.905-8.473 3.638-13.131-.269-4.695-2.089-9.058-5.027-12.51-.61 1.781-1.445 3.489-2.518 5.066l-11.621 17.068c-21.516 31.603-64.578 39.78-96.181 18.263l-10.775-7.336-8.334 12.241 23.016 15.67c31.604 21.517 74.665 13.34 96.181-18.263z" fill="#dfeaef"/><path d="m175.654 392.815 38.129 11.112c31.94 9.309 52.741 40.021 49.533 73.134l-1.53 15.8c-.77 7.953-5.95 14.795-13.395 17.694-4.348 1.693-9.133 1.903-13.613.598l-19.824-5.778c-36.705-10.697-57.788-49.125-47.091-85.83z" fill="#f1f1f4"/><path d="m214.954 505.376 19.824 5.778c4.48 1.306 9.265 1.095 13.613-.598 4.382-1.707 7.969-4.786 10.344-8.646-1.883-.029-3.765-.296-5.596-.83l-19.824-5.777c-36.705-10.697-57.788-49.125-47.091-85.829l3.647-12.515-14.217-4.143-7.791 26.732c-10.698 36.704 10.386 75.131 47.091 85.828z" fill="#dfeaef"/><path d="m174.761 392.702 1.214 39.697c1.017 33.253-21.764 62.527-54.248 69.709l-15.5 3.427c-7.801 1.725-15.909-1.087-20.968-7.272-2.954-3.612-4.633-8.098-4.775-12.762l-.631-20.639c-1.169-38.214 28.863-70.14 67.077-71.309z" fill="#f1f1f4"/><path d="m79.854 464.862.631 20.639c.143 4.664 1.821 9.15 4.775 12.762 2.977 3.64 7.014 6.1 11.42 7.166-.554-1.8-.882-3.672-.94-5.579l-.631-20.639c-1.169-38.214 28.863-70.14 67.077-71.309l13.029-.399-.453-14.802-27.831.851c-38.215 1.169-68.246 33.096-67.077 71.31z" fill="#dfeaef"/><path d="m174.637 393.338-37.379 13.422c-31.311 11.243-66.192-1.377-83.061-30.052l-8.049-13.682c-4.051-6.886-3.882-15.467.437-22.188 2.522-3.925 6.27-6.908 10.661-8.485l19.434-6.978c35.983-12.92 75.626 5.775 88.547 41.758z" fill="#f1f1f4"/><path d="m76.68 325.374-19.434 6.978c-4.391 1.577-8.139 4.56-10.661 8.485-2.542 3.956-3.634 8.556-3.287 13.075 1.54-1.083 3.22-1.974 5.015-2.618l19.434-6.978c35.983-12.92 75.626 5.775 88.547 41.758l4.405 12.268 13.937-5.005-9.41-26.206c-12.919-35.982-52.563-54.678-88.546-41.757z" fill="#dfeaef"/><path d="m174.641 392.686-24.315-31.402c-20.368-26.304-19.145-63.378 2.914-88.282l10.525-11.883c5.298-5.981 13.51-8.472 21.237-6.441 4.513 1.186 8.508 3.828 11.364 7.518l12.642 16.326c23.407 30.229 17.877 73.71-12.352 97.117z" fill="#f1f1f4"/><path d="m209.009 278.522-12.642-16.326c-2.857-3.689-6.852-6.332-11.364-7.518-4.548-1.195-9.26-.813-13.451.915 1.506 1.13 2.872 2.452 4.04 3.961l12.642 16.326c23.407 30.229 17.877 73.71-12.352 97.117l-10.307 7.981 9.067 11.709 22.015-17.047c30.229-23.408 35.759-66.889 12.352-97.118z" fill="#dfeaef"/><circle cx="174.718" cy="392.696" fill="#f6e781" r="23.59"/></g></svg>