<svg height="394pt" viewBox="-47 0 394 394.11588" width="394pt" xmlns="http://www.w3.org/2000/svg"><path d="m27.445312 286.714844c-40.960937 95.574218 54.613282 81.921875 54.613282 81.921875l68.734375 11.566406c0-22.640625 67.796875-38.875 67.796875-38.875 37.703125 0 68.269531-30.5625 68.269531-68.265625 0-18.511719-7.371094-35.304688-19.335937-47.601562l-187.308594-211.8125s-9.597656 56.671874-25.460938 136.535156c-8.050781 40.507812-81.921875 40.957031-27.308594 136.53125" fill="#ffdea2"/><path d="m273.203125 314.023438c7.390625-42.558594-150.183594-95.574219-236.066406 29.953124-9.382813 13.714844-2.332031 25.902344 17.921875 25.902344 23.382812 0 58.558594 14.972656 81.613281 12.410156 26.75-2.972656 41.292969-23.914062 67.054687-30.265624 14.375-3.542969 67.730469-27.9375 69.476563-38zm0 0" fill="#f4aeab"/><g fill="#5c128d"><path d="m164.667969 322.515625s24.628906-109.597656-79.320313-2.480469c-5.722656 5.894532-1.628906 15.777344 6.585938 15.777344 21.460937 0 42.785156-3.425781 63.167968-10.144531zm0 0"/><path d="m150.765625 394.117188c-7.546875 0-13.625-6.363282-13.625-13.90625 0-30.160157 54.730469-46.519532 78.265625-52.160157 1.050781-.253906 2.117188-.375 3.183594-.375 30.121094 0 54.613281-24.492187 54.613281-54.613281 0-14.304688-5.492187-27.824219-15.464844-38.078125l-187.746093-212.296875c-5-5.640625-4.464844-14.265625 1.1875-19.265625 5.640624-4.988281 14.292968-4.464844 19.265624 1.1875l187.304688 211.8125c14.523438 14.894531 22.761719 35.1875 22.761719 56.640625 0 44.601562-35.828125 80.984375-80.199219 81.90625-26.640625 6.613281-53.574219 18.972656-55.933594 25.746094 0 7.546875-6.082031 13.402344-13.613281 13.402344zm0 0"/><path d="m62.429688 382.289062c-34.382813 0-62.3710942-27.984374-62.3710942-62.375 0-15.824218 5.9453122-30.917968 16.7343752-42.503906 5.132812-5.496094 13.757812-5.8125 19.292969-.679687 5.519531 5.132812 5.828124 13.773437.679687 19.292969-6.054687 6.507812-9.402344 15-9.402344 23.894531 0 19.332031 15.734375 35.066406 35.066407 35.066406 4.746093 0 9.335937-.921875 13.640624-2.746094 6.894532-2.90625 14.949219.28125 17.894532 7.253907 2.933594 6.945312-.308594 14.960937-7.253906 17.890624-7.691407 3.253907-15.851563 4.90625-24.28125 4.90625zm0 0"/></g></svg>