<svg id="Capa_1" enable-background="new 0 0 512 512" height="512" viewBox="0 0 512 512" width="512" xmlns="http://www.w3.org/2000/svg"><g><path d="m299.544 114.295 16.613 20.604h92.459l20.751-20.604v-83.893c-.001-16.79-13.612-30.402-30.403-30.402h-69.018c-16.791 0-30.402 13.612-30.402 30.402z" fill="#365e7d"/><path d="m398.964 0h-21.821c16.791 0 30.402 13.612 30.402 30.402v104.496l21.821-20.604v-83.892c0-16.79-13.611-30.402-30.402-30.402z" fill="#2b4d66"/><g><g><path d="m332.163 89.588c-4.268 0-7.726-3.459-7.726-7.726v-41.992c0-4.268 3.459-7.726 7.726-7.726 4.268 0 7.726 3.459 7.726 7.726v41.991c0 4.268-3.459 7.727-7.726 7.727z" fill="#2b4d66"/></g><g><path d="m364.455 89.588c-4.268 0-7.726-3.459-7.726-7.726v-41.992c0-4.268 3.459-7.726 7.726-7.726 4.268 0 7.726 3.459 7.726 7.726v41.991c0 4.268-3.459 7.727-7.726 7.727z" fill="#2b4d66"/></g><g><path d="m396.747 89.588c-4.268 0-7.726-3.459-7.726-7.726v-41.992c0-4.268 3.459-7.726 7.726-7.726 4.268 0 7.726 3.459 7.726 7.726v41.991c.001 4.268-3.458 7.727-7.726 7.727z" fill="#2b4d66"/></g></g><path d="m429.366 140.802v-26.507h-129.822v26.507c0 10.4-6.815 19.57-16.773 22.57-30.649 9.232-51.626 37.459-51.626 69.469v212.336c0 36.905 29.918 66.823 66.823 66.823h132.976c36.905 0 66.823-29.918 66.823-66.823v-212.336c0-32.01-20.977-60.237-51.626-69.469-9.959-3-16.775-12.17-16.775-22.57z" fill="#e4f6ff"/><g><path d="m446.139 163.372-4.087-2.044c-7.775-3.887-12.686-11.834-12.686-20.526v-26.507h-129.822v14.988h77.62c17.841 0 32.304 14.463 32.304 32.304 0 9.264 7.51 16.773 16.773 16.773 30.649 9.232 51.627 37.459 51.627 69.469v212.336c0 17.311-6.583 33.083-17.381 44.953 22.084-10.906 37.28-33.644 37.28-59.941v-212.336c-.001-32.01-20.978-60.237-51.628-69.469z" fill="#bed8fb"/></g><g><path d="m442.194 122.021h-155.478c-4.268 0-7.726-3.459-7.726-7.726 0-4.268 3.459-7.726 7.726-7.726h155.478c4.268 0 7.726 3.459 7.726 7.726s-3.458 7.726-7.726 7.726z" fill="#78d0b1"/></g><path d="m297.967 481.095h132.976c19.837 0 35.918-16.081 35.918-35.918v-156.955c0-6.027-6.197-10.055-11.716-7.632-6.904 3.031-10.497 8.059-22.422 8.059-17.069 0-17.069-10.302-34.138-10.302-17.067 0-17.067 10.302-34.134 10.302s-17.067-10.302-34.135-10.302c-17.067 0-17.067 10.302-34.133 10.302-11.922 0-15.515-5.027-22.416-8.058-5.518-2.424-11.716 1.605-11.716 7.632v156.955c-.002 19.836 16.079 35.917 35.916 35.917z" fill="#f6e781"/><g><path d="m455.144 280.589c-4.65 2.041-7.807 4.983-13.011 6.69.034.309.06.621.06.942v156.956c0 19.837-16.081 35.918-35.918 35.918h24.666c19.837 0 35.918-16.081 35.918-35.918v-156.955c.001-6.027-6.196-10.055-11.715-7.633z" fill="#ffd064"/></g><g><path d="m381.698 206.025c-14.87 0-26.969-12.099-26.969-26.969v-64.762c0-4.268 3.459-7.726 7.726-7.726h19.242c14.87 0 26.969 12.099 26.969 26.969v45.519c.001 14.871-12.098 26.969-26.968 26.969zm-11.516-84.004v57.035c0 6.35 5.166 11.516 11.516 11.516s11.516-5.166 11.516-11.516v-45.519c0-6.35-5.166-11.516-11.516-11.516z" fill="#78d0b1"/></g><g><path d="m344.554 166.505c-.961 0-1.937-.18-2.882-.56-3.959-1.594-5.876-6.094-4.284-10.052l10.129-25.17-17.311 8.956c-3.789 1.963-8.452.478-10.412-3.312-1.961-3.79-.478-8.452 3.312-10.412l35.8-18.521c2.867-1.485 6.359-1.028 8.749 1.146 2.389 2.173 3.175 5.604 1.97 8.601l-17.899 44.482c-1.214 3.011-4.111 4.842-7.172 4.842z" fill="#78d0b1"/></g><g fill="#78d0b1"><path d="m279.377 409.273c-.527-.221-37.878-16.427-68.94-60.895l5.086-44.271c.487-4.239-2.555-8.071-6.794-8.558-4.233-.484-8.071 2.554-8.558 6.794l-2.833 24.663c-7.408-13.877-13.954-29.811-18.861-48.03-.642-2.385-1.312-4.722-1.993-7.038l15.318-34.525c1.73-3.9-.028-8.466-3.929-10.196-3.901-1.728-8.465.028-10.196 3.929l-8.463 19.075c-4.735-12.527-9.978-23.821-15.415-33.957l1.762-43.686c.172-4.265-3.145-7.86-7.408-8.032-4.314-.169-7.86 3.146-8.032 7.408l-.821 20.37c-6.796-9.97-13.477-18.257-19.469-24.94-2.5-2.788-4.947-5.377-7.32-7.781l-2.384-30.304c-.334-4.254-4.057-7.435-8.308-7.097-4.255.334-7.432 4.054-7.097 8.308l1.097 13.953c-8.271-6.652-13.716-9.774-14.113-9.999-3.715-2.099-8.428-.792-10.529 2.922s-.793 8.429 2.922 10.529c.157.089 4.173 2.421 10.523 7.41h-13.642c-4.268 0-7.726 3.459-7.726 7.726 0 4.268 3.459 7.726 7.726 7.726h30.795c9.493 9.663 20.349 22.657 30.755 39.472h-30.106c-4.268 0-7.726 3.459-7.726 7.726s3.459 7.726 7.726 7.726h38.918c5.898 11.242 11.454 23.865 16.3 37.969h-28.142c-4.268 0-7.726 3.459-7.726 7.726s3.459 7.726 7.726 7.726h32.982c.363 1.281.723 2.566 1.074 3.868 6.296 23.374 15.153 43.164 24.915 59.731h-21.414c-4.268 0-7.726 3.459-7.726 7.726s3.459 7.726 7.726 7.726h31.377c10.347 14.687 21.064 26.157 30.424 34.749 23.603 21.666 43.692 30.239 44.536 30.594.978.41 1.991.605 2.989.605 3.018 0 5.884-1.78 7.127-4.736 1.651-3.931-.198-8.459-4.133-10.112z"/><path d="m272.65 434.608c-.452.065-28.835 3.783-63.558-3.573l-11.265-30.479c-1.48-4.003-5.927-6.048-9.926-4.569-4.003 1.48-6.048 5.924-4.569 9.926l7.504 20.302c-9.784-3.123-19.759-7.238-29.505-12.631l-9.536-36.892c-1.067-4.131-5.285-6.612-9.414-5.547-4.132 1.068-6.615 5.283-5.547 9.414l5.264 20.362c-9.393-6.99-18.753-12.821-27.867-17.682l-11.064-33.478c-1.339-4.051-5.708-6.249-9.761-4.911-4.051 1.339-6.251 5.709-4.911 9.761l6.458 19.54c-10.692-4.403-20.774-7.54-29.844-9.767l-14.889-28.809c-1.961-3.793-6.625-5.274-10.411-3.317-3.791 1.96-5.276 6.621-3.317 10.411l9.285 17.965c-14.181-2.009-23.263-1.626-24.208-1.577-4.262.218-7.539 3.85-7.321 8.112.218 4.261 3.82 7.554 8.112 7.321.201-.012 7.696-.324 19.832 1.315l-22.446 18.588c-3.287 2.721-3.744 7.593-1.023 10.878 1.528 1.845 3.733 2.799 5.955 2.799 1.736 0 3.483-.581 4.924-1.776l32.255-26.711c9.196 2.284 19.539 5.579 30.513 10.314l-24.743 16.863c-3.526 2.403-4.437 7.21-2.033 10.735 1.496 2.195 3.922 3.376 6.391 3.376 1.498 0 3.013-.436 4.344-1.343l32.062-21.853c8.552 4.634 17.32 10.187 26.091 16.845 1.974 1.498 3.969 2.919 5.973 4.3l-20.981 13.832c-3.562 2.349-4.547 7.141-2.198 10.703 1.485 2.254 3.948 3.475 6.458 3.475 1.46 0 2.936-.413 4.245-1.277l26.992-17.794c11.423 6.241 23.041 10.871 34.331 14.29l-15.543 17.774c-2.809 3.212-2.482 8.094.729 10.902 1.466 1.282 3.279 1.91 5.083 1.91 2.151 0 4.292-.893 5.819-2.64l20.674-23.641c17.953 3.805 34.257 4.815 46.486 4.815 12.866 0 21.227-1.116 22.248-1.26 4.222-.596 7.161-4.498 6.569-8.721-.588-4.222-4.494-7.172-8.717-6.58z"/></g></g></svg>