<svg id="essential_x5F_oils" enable-background="new 0 0 300 300" height="512" viewBox="0 0 300 300" width="512" xmlns="http://www.w3.org/2000/svg"><circle cx="118" cy="122" fill="#efefd2" r="86"/><path d="m132.203 264h-64.537c-6.515 0-11.797-5.282-11.797-11.797v-98.57c0-9.738 7.894-17.633 17.633-17.633h52.866c9.738 0 17.633 7.894 17.633 17.633v98.57c-.001 6.515-5.283 11.797-11.798 11.797z" fill="#b5a19c"/><path d="m132.203 268h-64.537c-8.71 0-15.797-7.086-15.797-15.797v-98.57c0-11.928 9.705-21.633 21.633-21.633h52.865c11.928 0 21.633 9.705 21.633 21.633v98.57c0 8.711-7.086 15.797-15.797 15.797zm-58.701-128c-7.517 0-13.633 6.116-13.633 13.633v98.57c0 4.299 3.498 7.797 7.797 7.797h64.537c4.299 0 7.797-3.498 7.797-7.797v-98.57c0-7.517-6.116-13.633-13.633-13.633z" fill="#4c241d"/><path d="m84.197 112h31.475v24h-31.475z" fill="#b5a19c"/><path d="m115.672 140h-31.475c-2.209 0-4-1.791-4-4v-24c0-2.209 1.791-4 4-4h31.476c2.209 0 4 1.791 4 4v24c-.001 2.209-1.792 4-4.001 4zm-27.475-8h23.476v-16h-23.476z" fill="#4c241d"/><path d="m71.607 72h56.656v40h-56.656z" fill="#a9ba5a"/><path d="m128.263 116h-56.656c-2.209 0-4-1.791-4-4v-40c0-2.209 1.791-4 4-4h56.656c2.209 0 4 1.791 4 4v40c0 2.209-1.791 4-4 4zm-52.656-8h48.656v-32h-48.656z" fill="#4c241d"/><path d="m56 164h88v76h-88z" fill="#efefd2"/><path d="m144 244h-88c-2.209 0-4-1.791-4-4v-76c0-2.209 1.791-4 4-4h88c2.209 0 4 1.791 4 4v76c0 2.209-1.791 4-4 4zm-84-8h80v-68h-80z" fill="#4c241d"/><path d="m106.194 190.951c12.353 9.002 13.476 28.499 13.476 28.499s-18.904 4.903-31.257-4.099-13.476-28.499-13.476-28.499 18.904-4.903 31.257 4.099z" fill="#a9ba5a"/><path d="m107.893 224.785c-6.779 0-15.074-1.275-21.835-6.202-13.723-10-15.063-30.628-15.113-31.501-.11-1.905 1.142-3.623 2.989-4.102.847-.219 20.894-5.263 34.617 4.739 13.723 10 15.063 30.627 15.113 31.501.11 1.905-1.142 3.623-2.989 4.102-.43.111-5.802 1.463-12.782 1.463zm-28.525-34.705c.92 5.551 3.657 16.394 11.401 22.037 7.784 5.673 18.918 4.946 24.472 4.112-.918-5.548-3.654-16.4-11.403-22.046-7.743-5.642-18.9-4.927-24.47-4.103z" fill="#4c241d"/><path d="m252.203 264h-64.537c-6.515 0-11.797-5.282-11.797-11.797v-98.57c0-9.738 7.894-17.633 17.633-17.633h52.866c9.738 0 17.633 7.894 17.633 17.633v98.57c-.001 6.515-5.283 11.797-11.798 11.797z" fill="#b5a19c"/><path d="m252.203 268h-64.537c-8.71 0-15.797-7.086-15.797-15.797v-98.57c0-11.928 9.705-21.633 21.633-21.633h52.865c11.928 0 21.633 9.705 21.633 21.633v98.57c0 8.711-7.086 15.797-15.797 15.797zm-58.701-128c-7.517 0-13.633 6.116-13.633 13.633v98.57c0 4.299 3.498 7.797 7.797 7.797h64.537c4.299 0 7.797-3.498 7.797-7.797v-98.57c0-7.517-6.116-13.633-13.633-13.633z" fill="#4c241d"/><path d="m204.197 112h31.475v24h-31.475z" fill="#b5a19c"/><path d="m235.672 140h-31.476c-2.209 0-4-1.791-4-4v-24c0-2.209 1.791-4 4-4h31.476c2.209 0 4 1.791 4 4v24c0 2.209-1.791 4-4 4zm-27.475-8h23.476v-16h-23.476z" fill="#4c241d"/><path d="m191.607 72h56.656v40h-56.656z" fill="#ffce56"/><path d="m248.263 116h-56.656c-2.209 0-4-1.791-4-4v-40c0-2.209 1.791-4 4-4h56.656c2.209 0 4 1.791 4 4v40c0 2.209-1.791 4-4 4zm-52.656-8h48.656v-32h-48.656z" fill="#4c241d"/><path d="m176 164h88v76h-88z" fill="#efefd2"/><path d="m264 244h-88c-2.209 0-4-1.791-4-4v-76c0-2.209 1.791-4 4-4h88c2.209 0 4 1.791 4 4v76c0 2.209-1.791 4-4 4zm-84-8h80v-68h-80z" fill="#4c241d"/><path d="m237.027 210.513c0 9.403-7.623 17.027-17.027 17.027s-17.027-7.623-17.027-17.027 17.027-34.053 17.027-34.053 17.027 24.65 17.027 34.053z" fill="#ffce56"/><g fill="#4c241d"><path d="m220 231.54c-11.594 0-21.026-9.433-21.026-21.027 0-10.137 14.773-32.039 17.735-36.327.747-1.081 1.977-1.727 3.291-1.727s2.544.646 3.291 1.727c2.962 4.288 17.736 26.189 17.736 36.327 0 11.594-9.433 21.027-21.027 21.027zm0-47.902c-9.424 14.475-13.026 24.035-13.026 26.875 0 7.183 5.844 13.027 13.026 13.027 7.183 0 13.027-5.844 13.027-13.027 0-2.84-3.603-12.4-13.027-26.875z"/><path d="m88 115.6c-2.209 0-4-1.791-4-4v-39.2c0-2.209 1.791-4 4-4s4 1.791 4 4v39.2c0 2.209-1.791 4-4 4z"/><path d="m112 115.6c-2.209 0-4-1.791-4-4v-39.2c0-2.209 1.791-4 4-4s4 1.791 4 4v39.2c0 2.209-1.791 4-4 4z"/><path d="m208 115.6c-2.209 0-4-1.791-4-4v-39.2c0-2.209 1.791-4 4-4s4 1.791 4 4v39.2c0 2.209-1.791 4-4 4z"/><path d="m232 115.6c-2.209 0-4-1.791-4-4v-39.2c0-2.209 1.791-4 4-4s4 1.791 4 4v39.2c0 2.209-1.791 4-4 4z"/><path d="m160 56c-2.209 0-4-1.791-4-4v-12c0-2.209 1.791-4 4-4s4 1.791 4 4v12c0 2.209-1.791 4-4 4z"/><path d="m160 84c-2.209 0-4-1.791-4-4v-12c0-2.209 1.791-4 4-4s4 1.791 4 4v12c0 2.209-1.791 4-4 4z"/><path d="m152 64h-12c-2.209 0-4-1.791-4-4s1.791-4 4-4h12c2.209 0 4 1.791 4 4s-1.791 4-4 4z"/><path d="m180 64h-12c-2.209 0-4-1.791-4-4s1.791-4 4-4h12c2.209 0 4 1.791 4 4s-1.791 4-4 4z"/><circle cx="168" cy="112" r="4"/><circle cx="44" cy="100" r="4"/><path d="m46 60c-7.72 0-14-6.28-14-14s6.28-14 14-14 14 6.28 14 14-6.28 14-14 14zm0-20c-3.309 0-6 2.691-6 6s2.691 6 6 6 6-2.691 6-6-2.691-6-6-6z"/></g></svg>