<svg height="512" viewBox="0 0 59 59" width="512" xmlns="http://www.w3.org/2000/svg"><g id="038---Improved-Sense-of-Smell" fill="none"><circle id="Oval" cx="48" cy="11" fill="#4fba6f" r="11"/><path id="Shape" d="m46 16c-.543 0-.565-.151-2.707-2.293-.3789722-.3923789-.3735524-1.0160848.0121814-1.4018186s1.0094397-.3911536 1.4018186-.0121814l1.185 1.185 5.308-7.078c.3313708-.4418278.9581722-.53137085 1.4-.2s.5313708.9581722.2 1.4l-6 8c-.1888544.2518058-.4852427.4-.8.4z" fill="#ecf0f1"/><path id="Shape" d="m43 36c-.0000263 2.8862808-1.3843346 5.5974405-3.7222495 7.2900039-2.337915 1.6925633-5.3457575 2.1611571-8.0877505 1.2599961-5.2630615 4.6004439-13.1169385 4.6004439-18.38 0-3.20140766 1.044956-6.71834232.2152008-9.11506217-2.1505291-2.39671984-2.36573-3.27217323-5.8715686-2.26896796-9.0863039 1.00320528-3.2147353 3.71719931-5.6004343 7.03403013-6.183167l6.16-21.56c.9397635-3.29666876 3.9520005-5.5702234 7.38-5.5702234s6.4402365 2.27355464 7.38 5.5702234l6.16 21.56c4.3128688.7490264 7.4613299 4.492572 7.46 8.87z" fill="#fdd7ad"/><path id="Shape" d="m9.09 39.43c-.90232116.7438174-2.19970698.7627692-3.12336942.0456252-.92366245-.7171439-1.22679707-1.9787613-.72977629-3.0372594.49702077-1.058498 1.661392-1.6310439 2.80314571-1.3783658z" fill="#59474e"/><path id="Shape" d="m35.96 35.06c1.1417537-.2526781 2.3061249.3198678 2.8031457 1.3783658.4970208 1.0584981.1938862 2.3201155-.7297763 3.0372594-.9236624.717144-2.2210482.6981922-3.1233694-.0456252z" fill="#59474e"/><g fill="#3b97d3"><path id="Shape" d="m11.707 48.294c-.2859855-.2861653-.7162224-.3718179-1.09-.217-.268.111-.075-.034-3.325 3.216-.37897221.3923789-.37355237 1.0160848.01218142 1.4018186.3857338.3857338 1.00943969.3911536 1.40181858.0121814l1.294-1.293v1.586c0 2.209139-1.790861 4-4 4h-5c-.55228475 0-1 .4477153-1 1s.44771525 1 1 1h5c3.31233757-.0033074 5.9966926-2.6876624 6-6v-1.586l1.293 1.293c.3923789.3789722 1.0160848.3735524 1.4018186-.0121814s.3911536-1.0094397.0121814-1.4018186z"/><path id="Shape" d="m43 57h-5c-2.209139 0-4-1.790861-4-4v-1.586l1.293 1.293c.3923789.3789722 1.0160848.3735524 1.4018186-.0121814s.3911536-1.0094397.0121814-1.4018186l-3-3c-.2859855-.2861653-.7162224-.3718179-1.09-.217-.268.111-.075-.034-3.325 3.216-.3789722.3923789-.3735524 1.0160848.0121814 1.4018186s1.0094397.3911536 1.4018186.0121814l1.294-1.292v1.586c.0033074 3.3123376 2.6876624 5.9966926 6 6h5c.5522847 0 1-.4477153 1-1s-.4477153-1-1-1z"/><path id="Shape" d="m22.707 51.294c-.2859855-.2861653-.7162224-.3718179-1.09-.217-.268.111-.075-.034-3.325 3.216-.3789722.3923789-.3735524 1.0160848.0121814 1.4018186s1.0094397.3911536 1.4018186.0121814l1.294-1.293v3.586c0 .5522847.4477153 1 1 1s1-.4477153 1-1v-3.586l1.293 1.293c.2510745.2599566.6228779.3642126.9725073.2726972.3496295-.0915155.6226744-.3645604.7141899-.7141899.0915154-.3496294-.0127406-.7214328-.2726972-.9725073z"/></g><path id="Shape" d="m22 49c-8.2803876-.0093685-14.99063148-6.7196124-15-15 0-.5522847.44771525-1 1-1s1 .4477153 1 1c0 7.1797017 5.8202983 13 13 13s13-5.8202983 13-13c0-.5522847.4477153-1 1-1s1 .4477153 1 1c-.0093685 8.2803876-6.7196124 14.9906315-15 15z" fill="#f9c795"/></g></svg>